# xmcd
#
# Track frame offsets:
#	150
#	12837
#	26137
#	39847
#	54705
#	67135
#	81497
#	101042
#	114552
#	127087
#	142872
#	158830
#	174522
#	194067
#	204760
#	221735
#
# Disc length: 3164 seconds
#
# Revision: 2
# Processed by: cddbd v1.5.2PL0 Copyright (c) Steve Scherf et al.
# Submitted via: audiograbber 1.83.01
#
DISCID=ea0c5a10
DTITLE=διαφοροι - Οι λαικές επιτυχίες του '80
DYEAR=1900
DGENRE=Other
TTITLE0=Τώρα έχουν μείνει δύο καημοί
TTITLE1=Πιάσε μάγκα τ' όργανο σου
TTITLE2=Ο χαρταετός
TTITLE3=Γόρδιος δεσμός
TTITLE4=Αλήτη μου
TTITLE5=Όπου και να πας
TTITLE6=Έτσι είμαι εγώ
TTITLE7=Ο έρωτας της Κυριακής
TTITLE8=Τώρα
TTITLE9=Όταν πές σ'αγαπώ
TTITLE10=Είσαι ωραία σαν αμαρτία
TTITLE11=Διπλή ζωή
TTITLE12=Παιδί της βροχής
TTITLE13=Τι ωραίος τύπος είσαι
TTITLE14=Μάη μου
TTITLE15=Κρίμα που δεν ξέρεις ν'αγαπιέσαι
EXTD=
EXTT0=
EXTT1=
EXTT2=
EXTT3=
EXTT4=
EXTT5=
EXTT6=
EXTT7=
EXTT8=
EXTT9=
EXTT10=
EXTT11=
EXTT12=
EXTT13=
EXTT14=
EXTT15=
PLAYORDER=
